<svg width="720" height="180" viewBox="0 0 720 180" fill="none" xmlns="http://www.w3.org/2000/svg">
  <defs>
    <linearGradient id="bg" x1="18" y1="18" x2="142" y2="162" gradientUnits="userSpaceOnUse">
      <stop stop-color="#FFFDF7"/>
      <stop offset="1" stop-color="#F7E9C8"/>
    </linearGradient>
    <linearGradient id="line" x1="44" y1="34" x2="126" y2="148" gradientUnits="userSpaceOnUse">
      <stop stop-color="#0F6B57"/>
      <stop offset=".58" stop-color="#1E8A70"/>
      <stop offset="1" stop-color="#F59E0B"/>
    </linearGradient>
  </defs>
  <rect x="18" y="18" width="144" height="144" rx="36" fill="url(#bg)"/>
  <rect x="21" y="21" width="138" height="138" rx="33" stroke="#DED6C7" stroke-width="6"/>
  <path d="M51 75 90 54l39 21v43L90 139l-39-21V75Z" fill="#FFFDF7" stroke="url(#line)" stroke-width="11" stroke-linejoin="round"/>
  <path d="M52 76 90 96l38-20M90 96v40" stroke="#0F6B57" stroke-width="8" stroke-linecap="round" stroke-linejoin="round"/>
  <path d="M70 118V92M110 92v26M80 124h20" stroke="#17201C" stroke-width="8" stroke-linecap="round"/>
  <path d="M99 59c8-8 17-14 29-16-3 12-8 21-16 30" stroke="#F59E0B" stroke-width="9" stroke-linecap="round" stroke-linejoin="round"/>
  <path d="M128 43 125 64 110 50Z" fill="#F59E0B"/>
  <path d="M67 43 70 34l4 9 9 4-9 3-4 10-3-10-10-3 10-4Z" fill="#F59E0B"/>
  <text x="196" y="94" fill="#17201C" font-family="Inter, Arial, sans-serif" font-size="52" font-weight="850" letter-spacing="0">AIBox</text>
  <text x="359" y="94" fill="#0F6B57" font-family="Inter, Arial, sans-serif" font-size="52" font-weight="850" letter-spacing="0">Pro</text>
  <text x="198" y="126" fill="#65706B" font-family="Inter, Arial, sans-serif" font-size="18" font-weight="600" letter-spacing="0">中文 AI 工具决策平台</text>
</svg>
