<svg width="720" height="180" viewBox="0 0 720 180" fill="none" xmlns="http://www.w3.org/2000/svg">
  <defs>
    <linearGradient id="bg" x1="18" y1="18" x2="142" y2="162" gradientUnits="userSpaceOnUse">
      <stop stop-color="#FFFDF7"/>
      <stop offset="1" stop-color="#F7E9C8"/>
    </linearGradient>
    <linearGradient id="line" x1="44" y1="34" x2="126" y2="148" gradientUnits="userSpaceOnUse">
      <stop stop-color="#0F6B57"/>
      <stop offset=".58" stop-color="#1E8A70"/>
      <stop offset="1" stop-color="#F59E0B"/>
    </linearGradient>
  </defs>
  <rect x="18" y="18" width="144" height="144" rx="36" fill="url(#bg)"/>
  <rect x="21" y="21" width="138" height="138" rx="33" stroke="#DED6C7" stroke-width="6"/>
  <path d="M54 72 90 53l36 19v41L90 133l-36-20V72Z" fill="#FFFDF7" stroke="url(#line)" stroke-width="10" stroke-linejoin="round"/>
  <path d="M55 73 90 92l35-19M90 92v38" stroke="#0F6B57" stroke-width="7" stroke-linecap="round" stroke-linejoin="round"/>
  <path d="M73 113V90M73 90l-10 23M73 90l10 23M67 104h12M94 89v24M108 89v24" stroke="#17201C" stroke-width="6" stroke-linecap="round"/>
  <path d="M102 57c8-10 18-15 30-17-3 11-9 20-18 27" stroke="#F59E0B" stroke-width="8" stroke-linecap="round" stroke-linejoin="round"/>
  <path d="M132 40 129 62 113 47Z" fill="#F59E0B"/>
  <path d="M67 39 70 30l4 9 9 4-9 3-4 10-3-10-10-3 10-4Z" fill="#F59E0B"/>
  <text x="196" y="94" fill="#17201C" font-family="Inter, Arial, sans-serif" font-size="52" font-weight="800" letter-spacing="0">AIBox</text>
  <text x="359" y="94" fill="#0F6B57" font-family="Inter, Arial, sans-serif" font-size="52" font-weight="800" letter-spacing="0">Pro</text>
  <text x="198" y="126" fill="#65706B" font-family="Inter, Arial, sans-serif" font-size="18" font-weight="600" letter-spacing="0">中文 AI 工具决策平台</text>
</svg>
