<svg width="512" height="512" viewBox="0 0 512 512" fill="none" xmlns="http://www.w3.org/2000/svg">
  <defs>
    <linearGradient id="bg" x1="64" y1="48" x2="448" y2="464" gradientUnits="userSpaceOnUse">
      <stop stop-color="#FFFDF7"/>
      <stop offset="1" stop-color="#F7E9C8"/>
    </linearGradient>
    <linearGradient id="line" x1="112" y1="94" x2="400" y2="418" gradientUnits="userSpaceOnUse">
      <stop stop-color="#0F6B57"/>
      <stop offset=".58" stop-color="#1E8A70"/>
      <stop offset="1" stop-color="#F59E0B"/>
    </linearGradient>
  </defs>
  <rect x="16" y="16" width="480" height="480" rx="112" fill="url(#bg)"/>
  <rect x="22" y="22" width="468" height="468" rx="106" stroke="#DED6C7" stroke-width="12"/>
  <path d="M128 180 256 112l128 68v146L256 396 128 326V180Z" fill="#FFFDF7" stroke="url(#line)" stroke-width="34" stroke-linejoin="round"/>
  <path d="M132 184 256 250l124-66M256 250v136" stroke="#0F6B57" stroke-width="26" stroke-linecap="round" stroke-linejoin="round"/>
  <path d="M194 324v-80M194 244l-35 80M194 244l35 80M172 293h44M270 242v82M320 242v82" stroke="#17201C" stroke-width="24" stroke-linecap="round"/>
  <path d="M296 123c29-32 62-51 102-57-11 37-31 69-62 94" stroke="#F59E0B" stroke-width="30" stroke-linecap="round" stroke-linejoin="round"/>
  <path d="M398 66 388 139 334 91Z" fill="#F59E0B"/>
  <path d="M166 94 177 65l10 29 29 10-29 11-10 29-11-29-29-11 29-10Z" fill="#F59E0B"/>
</svg>
